<svg width="492" height="665" viewBox="0 0 492 665" fill="none" xmlns="http://www.w3.org/2000/svg">
<path d="M184.959 14.6921C177.292 16.9723 164.706 24.9206 155.091 35.0259C145.476 45.1313 138.753 57.3057 135.102 71.6061C131.451 85.9065 130.804 102.259 132.275 114.8C133.745 127.34 135.922 134.311 139.017 140.93C142.113 147.55 146.099 153.813 150.979 159.702C155.858 165.592 161.605 171.116 167.579 175.66C173.554 180.203 179.424 183.478 185.761 185.992C192.098 188.505 198.884 190.26 206.106 191.272C213.328 192.284 220.982 192.554 229.471 191.997C237.959 191.44 246.896 189.487 255.545 185.953C264.195 182.419 272.546 177.344 280.596 170.752C288.646 164.16 296.396 156.06 302.68 147.528C308.966 138.997 312.939 131.116 315.518 123.115C318.097 115.114 319.242 107.004 318.947 98.829C318.654 90.6541 316.939 82.4441 314.013 73.861C311.085 65.2779 306.839 56.4966 301.165 48.3903C295.493 40.2833 288.408 32.8714 279.95 26.1416C271.493 19.4118 261.664 13.3732 251.637 8.74159C241.609 4.10867 232.358 1.53374 223.106 0.521911C213.856 -0.49057 204.597 -0.0455448 195.329 1.99367C186.061 4.03288 176.899 7.85737 170.553 11.9047C164.207 15.9514 168.019 22.8632 172.335 20.482C172.335 20.482 181.227 16.6724 189.376 13.4438C197.524 10.2146 205.708 8.36977 214.006 8.08474C222.304 7.79907 230.694 9.13091 239.172 11.9513C247.65 14.7724 257.89 20.0674 266.781 25.9764C275.673 31.8848 283.179 38.3711 289.316 45.4351C295.454 52.4991 300.236 60.1481 303.729 68.4656C307.22 76.7831 309.704 84.3822 310.834 91.7482C311.965 99.1134 311.799 106.395 310.353 113.638C308.908 120.88 306.147 128.108 302.086 135.292C298.027 142.475 290.844 151.124 283.425 158.331C276.005 165.537 268.402 171.225 260.627 175.423C252.852 179.621 244.89 182.334 236.678 183.626C228.467 184.918 221.004 185.125 213.998 184.644C206.992 184.164 200.467 183.002 194.416 181.156C188.366 179.311 182.773 176.804 177.637 173.635C172.502 170.468 166.61 165.523 161.544 160.28C156.478 155.038 152.287 149.498 148.928 143.676C145.57 137.855 143.054 131.73 141.376 125.399C139.698 119.067 138.46 102.111 140.02 87.4754C141.58 72.8394 145.878 60.4662 152.905 50.2766C159.931 40.0864 169.873 32.2081 175.436 28.6537C188.043 22.2089 177.914 17.5825 184.959 14.6921Z" fill="black"/>
<path d="M208.32 185.192C208.353 187.34 209.326 191.846 210.326 197.187C211.326 202.528 212.186 208.752 212.768 215.859C213.352 222.966 213.616 230.944 213.432 236.982C213.247 243.02 212.941 246.542 212.641 249.717C212.341 252.891 212.04 255.716 211.737 258.188C211.435 260.661 211.124 262.776 209.337 272.608C207.549 282.44 204.681 298.163 202.46 310.736C200.239 323.31 198.636 332.732 197.676 339.04C196.716 345.346 196.369 348.709 196.047 353.412C195.727 358.115 195.128 366.193 194.767 373.503C194.407 380.813 194.307 387.361 194.44 393.155C194.572 398.948 194.958 403.998 195.646 409.328C196.334 414.656 197.42 420.558 198.875 425.964C200.329 431.37 202.171 436.277 204.412 440.68C206.653 445.084 209.303 448.974 212.474 452.564C215.646 456.153 219.233 459.346 222.996 461.734C226.759 464.123 230.7 465.666 234.779 466.301C238.857 466.935 243.006 466.662 247.766 465.473C252.527 464.284 257.992 461.913 263.181 458.38C268.371 454.847 273.286 450.19 277.953 444.439C282.621 438.688 287.046 431.841 290.879 424.416C294.713 416.99 297.675 409.53 300.061 401.692C302.448 393.853 304.255 385.637 305.476 377.045C306.697 368.453 307.341 359.489 307.392 350.982C307.444 342.475 306.909 334.442 305.807 326.028C304.705 317.615 303.067 308.815 300.872 299.631C298.679 290.446 295.939 280.875 286.492 257.241C277.046 233.608 261.896 196.176 257.073 186.923C252.249 177.671 245.148 181.118 248.16 187.321C248.16 187.321 253.573 199.832 269.609 236.753C285.644 273.674 288.628 283.085 291.152 292.307C293.675 301.531 295.644 310.344 297.078 318.741C298.511 327.137 299.401 335.119 299.759 342.675C300.117 350.231 299.883 359.117 299.079 367.618C298.275 376.119 296.922 384.224 295.032 391.941C293.141 399.658 290.696 406.984 287.719 413.904C284.741 420.825 280.684 428.004 276.477 434.072C272.27 440.139 267.955 445.071 263.535 448.862C259.113 452.654 254.611 455.342 249.937 456.995C245.262 458.646 241.989 459.342 238.946 459.315C235.902 459.288 232.918 458.576 229.919 457.158C226.921 455.739 223.888 453.557 220.822 450.554C217.756 447.551 215.246 444.517 213.072 440.999C210.898 437.481 209.029 433.422 207.475 428.811C205.921 424.201 204.691 419.037 203.802 413.287C202.913 407.536 202.39 403.27 202.105 398.252C201.822 393.234 201.774 387.401 201.978 380.765C202.181 374.129 202.617 366.696 203.31 358.421C204.003 350.146 203.903 349.111 204.42 345.165C204.937 341.219 206.117 333.975 207.934 323.549C209.75 313.123 212.217 299.532 215.325 282.773C218.432 266.015 218.771 263.963 219.1 261.618C219.43 259.273 219.759 256.599 220.083 253.592C220.408 250.585 220.726 247.242 221.043 243.471C221.361 239.701 221.47 230.945 221.468 223.03C221.467 215.115 221.192 207.984 220.589 201.62C219.987 195.256 218.911 189.674 217.82 187.182C216.015 182.584 209.034 187.299 208.32 185.192Z" fill="black"/>
<path d="M229.641 447.216C226.846 454.482 223.414 470.573 219.949 488.132C216.486 505.691 213.01 524.746 209.71 545.344C206.41 565.941 203.299 588.086 201.729 599.974C200.16 611.861 199.951 612.578 199.731 613.104C199.51 613.632 199.303 613.972 199.141 614.158C198.979 614.345 198.867 614.428 198.173 614.909C197.481 615.39 197.23 615.478 196.289 615.492C195.348 615.506 193.744 615.222 191.587 614.544C189.431 613.866 186.779 612.78 176.927 607.366C167.075 601.953 151.848 593.451 139.198 586.543C126.549 579.634 116.483 574.293 108.972 570.521C101.461 566.747 96.4286 564.527 91.2969 562.618C86.1645 560.709 79.5345 558.269 73.6027 556.237C67.6704 554.204 62.4227 552.596 57.85 551.402C53.2773 550.209 49.3583 549.431 45.6743 549.354C41.9904 549.279 38.5481 550.77 35.6415 553.56C32.7349 556.349 30.1768 560.255 27.8021 565.29C25.4273 570.326 23.1854 576.524 21.8308 583.842C20.4763 591.161 20.4686 597.468 21.0593 602.924C21.6508 608.381 22.8874 613.016 24.865 616.833C26.8434 620.65 29.6489 623.566 33.7772 624.931C37.9049 626.296 41.6542 625.58 44.8879 623.498C48.123 621.416 50.7257 618.226 52.8083 614.077C54.8916 609.928 56.5655 604.826 57.6214 599.654C58.6772 594.484 58.8534 589.784 58.4298 584.673C58.0061 579.562 56.9995 574.029 55.3587 568.078C53.7185 562.127 51.2465 555.842 48.8005 551.139C46.3552 546.436 39.0786 549.493 40.4312 552.713C40.4312 552.713 42.3033 559.408 44.36 565.194C46.416 570.98 48.0323 576.228 49.0635 580.992C50.0948 585.756 50.534 590.03 50.4031 593.765C50.2736 597.501 49.0454 602.697 47.5231 606.811C46.0015 610.925 44.3134 613.856 42.5987 615.641C40.8834 617.426 39.203 618.254 37.5589 618.439C35.9149 618.624 34.5455 617.63 32.9785 615.616C31.4115 613.602 30.1483 610.573 29.2939 606.472C28.4395 602.371 28.0787 597.214 28.2193 591.233C28.3592 585.252 30.3388 578.921 32.4577 573.517C34.5772 568.112 36.6844 564.022 38.701 561.292C40.7169 558.564 42.4678 557.172 43.8923 556.776C45.3161 556.38 48.0925 556.79 51.9164 557.639C55.7415 558.489 60.3245 559.762 65.6461 561.455C70.9682 563.148 77.0211 565.26 83.8189 567.813C90.6173 570.368 93.6431 571.413 99.2224 574.023C104.801 576.633 113.058 580.85 123.923 586.678C134.787 592.506 148.243 599.947 164.326 608.973C180.408 617.999 183.782 619.578 186.65 620.689C189.518 621.8 192.084 622.502 194.432 622.764C196.78 623.026 199.006 622.732 200.676 621.862C202.348 620.992 202.815 620.766 203.755 619.969C204.697 619.173 205.447 618.215 206.026 617.149C206.606 616.083 207.04 614.925 207.377 613.574C207.714 612.222 210.753 589.1 213.969 567.573C217.186 546.047 220.593 526.085 224.189 507.69C227.785 489.295 231.964 472.563 233.726 464.656C237.486 449.33 227.642 454.635 229.641 447.216Z" fill="black"/>
<path d="M253.428 425.437C252.716 428.168 252.461 434.21 252.262 441.163C252.063 448.115 251.66 455.97 250.948 464.708C250.236 473.446 249.083 483.045 246.145 500.035C243.206 517.025 239.077 539.476 235.666 559.581C232.253 579.685 229.558 597.446 227.573 612.869C225.588 628.292 224.321 641.386 223.811 647.622C223.301 653.858 222.998 655.031 222.667 655.914C222.336 656.796 222.014 657.381 221.764 657.693C221.514 658.004 221.371 658.112 220.867 657.728C220.364 657.344 216.604 655.45 211.303 651.513C206.003 647.576 199.344 641.62 191.399 633.677C183.454 625.734 174.232 615.827 167.687 608.626C161.142 601.426 156.561 596.275 149.482 587.932C142.402 579.588 132.834 568.088 120.793 553.433C108.752 538.778 94.248 520.964 85.5659 510.366C76.8837 499.768 75.7002 498.3 74.1228 496.021C72.5455 493.743 70.6267 490.689 68.3705 486.89C66.1143 483.09 63.5303 478.551 58.4394 475.667C53.3492 472.782 50.3188 474.772 47.7789 477.788C45.2389 480.804 43.0579 484.764 41.1126 489.677C39.1673 494.59 37.4209 500.484 36.2782 506.331C35.1368 512.179 34.9023 516.886 35.2171 521.336C35.5307 525.787 36.4 529.975 37.8542 533.876C39.3085 537.775 41.3296 541.369 43.8987 544.405C46.4665 547.44 49.2208 549.3 52.4727 549.709C55.7252 550.116 58.6946 548.557 60.6432 545.863C62.5923 543.169 63.9429 539.614 65.0746 534.762C66.2056 529.909 67.1041 524.048 67.6975 517.717C68.2928 511.385 68.5241 504.567 68.3595 497.259C68.1943 489.95 67.4118 482.176 66.1849 476.232C64.9574 470.287 57.1283 471.291 57.6388 475.271C57.6388 475.271 57.7366 483.279 58.4375 490.589C59.1371 497.899 59.5938 504.699 59.621 511.006C59.6475 517.312 59.2478 523.118 58.3584 528.407C57.4703 533.697 56.5285 537.261 55.5393 539.471C54.5495 541.68 53.8311 542.499 53.6394 542.582C53.447 542.666 52.7603 542.42 51.2367 541.127C49.7132 539.834 47.8378 537.216 46.3564 534.25C44.8742 531.285 43.843 528.028 43.2587 524.454C42.675 520.881 42.563 516.973 42.9147 512.798C43.2671 508.622 44.779 502.469 46.4412 497.303C48.1021 492.136 49.8699 488.096 51.6636 485.21C53.4573 482.325 55.1597 480.585 55.1027 479.425C55.0463 478.266 56.954 482.25 59.4765 486.621C61.9983 490.994 64.2202 494.649 66.148 497.604C68.0751 500.56 69.7224 502.839 71.0031 504.315C72.2838 505.79 88.4556 525.677 102.166 542.439C115.876 559.203 127.112 572.826 135.893 583.303C144.673 593.78 150.991 601.132 154.835 605.328C158.678 609.525 168.764 620.805 177.667 630.198C186.57 639.591 194.275 647.051 200.813 652.605C207.35 658.157 212.803 661.832 217.433 663.599C222.062 665.365 225.146 664.535 226.292 663.557C227.439 662.58 228.319 661.378 228.988 660.015C229.656 658.652 230.163 657.135 230.566 655.291C230.969 653.447 231.761 642.015 233.273 628.314C234.785 614.612 237.024 598.535 239.982 580.09C242.94 561.645 246.616 540.837 251.034 517.63C255.451 494.424 256.839 484.032 258.016 474.647C259.194 465.263 260.266 456.745 261.067 449.066C261.868 441.387 262.319 434.535 261.948 431.35C261.553 425.366 253.453 428.235 253.428 425.437Z" fill="black"/>
<path d="M264.483 215.13C265.592 214.86 267.58 213.767 269.599 212.406C271.617 211.045 273.699 209.471 275.852 207.699C278.005 205.927 280.254 203.987 288.717 196.172C297.183 188.357 310.732 176.294 322.504 166.091C334.277 155.889 344.195 147.461 352.24 140.797C360.285 134.133 366.435 129.226 371.706 125.216C376.977 121.207 383.384 116.585 390.979 111.371C398.575 106.157 407.368 100.374 417.485 94.228C427.602 88.0825 438.911 81.3812 447.598 75.419C456.285 69.4569 452.122 62.7517 446.156 66.455C446.156 66.455 433.702 73.0488 423.113 80.1977C412.524 87.3466 403.069 93.8477 394.663 99.5832C386.256 105.319 378.995 110.45 372.911 114.999C366.827 119.549 361.854 123.377 354.999 128.943C348.144 134.507 339.411 141.778 328.801 150.773C318.191 159.767 305.689 170.476 291.099 182.663C276.509 194.85 274.192 196.648 271.962 198.37C269.732 200.091 267.646 201.68 265.735 203.176C263.823 204.671 262.103 206.104 261.441 206.964C259.928 208.402 265.336 214.553 264.483 215.13Z" fill="black"/>
<path d="M19.7125 48.3637C20.5346 49.4785 22.6994 51.2502 25.1532 53.1255C27.6077 55.0008 30.3206 57.04 33.2505 59.3001C36.1804 61.5602 39.315 64.0574 47.3339 71.0956C55.3534 78.1337 68.3686 90.1118 81.8683 102.493C95.3687 114.874 109.378 127.632 123.898 140.768C138.417 153.904 153.445 167.42 164.139 176.877C174.833 186.334 180.246 191.051 184.926 195.159C189.606 199.267 193.573 202.744 196.851 205.571C200.128 208.398 202.74 210.558 204.508 211.93C206.276 213.302 207.614 214.243 208.917 215.085C210.219 215.927 211.492 216.66 212.751 217.253C214.01 217.846 215.256 218.291 216.053 218.682C216.851 219.073 220.765 212.218 220.265 211.933C220.265 211.933 219.356 211.285 218.486 210.48C217.618 209.675 216.644 208.867 215.579 208.024C214.514 207.181 213.35 206.31 212.121 205.377C210.894 204.442 208.779 202.855 205.892 200.666C203.006 198.476 199.349 195.692 194.951 192.287C190.552 188.883 185.439 184.83 179.674 180.121C173.91 175.411 158.475 161.787 143.592 148.459C128.708 135.131 114.376 122.137 100.594 109.478C86.8135 96.8202 73.5845 84.4962 61.0273 72.3529C48.4694 60.2096 45.2279 57.2117 42.2281 54.5202C39.2276 51.8286 36.3631 49.4085 33.6165 47.2832C30.8692 45.1578 28.203 43.3822 26.726 42.8232C24.1071 41.5296 20.8539 49.0976 19.7125 48.3637Z" fill="black"/>
<path d="M451.809 31.3323C451.218 32.0118 450.366 33.7407 449.625 35.8648C448.884 37.9882 448.233 40.5087 447.649 43.427C447.067 46.3452 446.521 49.6599 446.159 52.2174C445.796 54.7741 445.634 56.1656 445.503 57.4352C445.371 58.7049 445.263 59.8553 445.186 60.8911C445.108 61.9276 445.068 62.8565 445.04 63.606C445.013 64.3555 445.04 65.0272 445.117 65.6964C445.193 66.3662 445.328 67.0256 445.52 67.6721C445.712 68.3179 445.957 68.945 446.361 69.7618C446.765 70.5793 447.532 71.6864 448.476 72.6276C449.419 73.5695 450.5 74.3436 451.683 74.9674C452.866 75.5919 454.141 76.0874 455.119 75.9682C456.097 75.8497 458.278 68.2642 457.745 68.1113C457.745 68.1113 457.034 67.1059 456.41 66.8935C455.786 66.6803 455.334 66.4659 455.033 66.2748C454.733 66.0831 454.55 65.9263 454.385 65.6899C454.219 65.4534 454.127 65.2928 454.049 65.1302C453.972 64.9676 453.914 64.8173 453.872 64.6722C453.83 64.5271 453.802 64.3853 453.787 64.2207C453.772 64.0562 453.83 63.4091 453.926 62.611C454.022 61.8123 454.144 60.8665 454.315 59.7828C454.486 58.699 454.7 57.4793 454.95 56.1546C455.198 54.8305 455.919 51.3901 456.584 48.3605C457.248 45.3302 457.841 42.717 458.313 40.5152C458.785 38.3134 459.147 36.5327 459.113 35.7838C459.349 34.3606 451.539 32.006 451.809 31.3323Z" fill="black"/>
<path d="M455.788 69.8604C457.412 69.7055 460.054 68.7177 462.257 67.7272C464.46 66.7368 466.264 65.8143 467.714 65.0137C469.164 64.2124 470.321 63.5458 471.19 63.0263C472.06 62.5061 473.279 61.7359 474.565 60.794C475.85 59.8522 477.22 58.7477 478.632 57.4191C480.043 56.0905 481.444 54.4749 482.575 53.2571C483.706 52.0386 478.495 46.1108 477.674 46.8324C477.674 46.8324 475.829 48.0068 474.207 49.0653C472.584 50.1238 471.19 51.1078 469.988 51.9745C468.787 52.8419 467.761 53.5577 466.824 54.1633C465.887 54.769 465.183 55.2581 464.208 55.7977C463.232 56.3373 461.806 57.0557 459.982 57.9613C458.157 58.8675 455.964 59.9992 454.881 60.9177C452.408 62.4718 457.177 69.2249 455.788 69.8604Z" fill="black"/>
<path d="M0.932728 56.0302C1.67444 56.1565 3.47138 56.0198 5.84808 55.7095C8.22544 55.3986 11.1754 54.9484 14.6903 54.3563C18.2058 53.7636 22.292 53.0951 25.3365 52.5179C28.3805 51.9408 29.4344 51.5702 30.4203 51.0805C31.4069 50.5908 32.3345 49.9443 33.1656 49.064C33.9974 48.183 34.6303 47.0345 35.0053 45.6132C35.3804 44.1927 35.6188 42.1535 35.6673 39.9802C35.7153 37.8062 35.565 35.4645 35.188 32.9368C34.8103 30.4092 34.2319 27.6808 33.3606 24.5941C32.488 21.5074 31.4341 18.4641 30.2765 15.6703C29.1189 12.8757 27.8052 10.3565 26.3225 8.13852C24.8397 5.92052 23.1173 4.08083 21.9519 2.89085C20.7859 1.70153 14.6423 6.6564 15.3076 7.48167C15.3076 7.48167 16.3039 9.22744 17.2212 11.0775C18.1384 12.9282 19.1632 14.9525 20.2437 17.2133C21.3248 19.4747 22.4267 21.9991 23.5092 24.7774C24.591 27.5557 25.3832 30.0199 25.9733 32.2787C26.5641 34.5382 26.9204 36.5327 27.094 38.2409C27.2676 39.9497 27.1847 41.3554 26.899 42.5156C26.6133 43.6751 26.6755 43.4885 26.8193 43.2404C26.9625 42.9917 26.9988 42.9334 26.8316 43.0014C26.6639 43.0701 26.2823 43.2074 25.9001 43.3214C25.5179 43.4361 21.08 43.8519 17.0825 44.2911C13.0857 44.7297 9.64667 45.2019 6.76664 45.7525C3.8866 46.3038 1.56043 46.9399 0.572562 47.4601C-1.16738 48.181 1.6848 55.8287 0.932728 56.0302Z" fill="black"/>
<path d="M3.97021 25.7013C4.55192 27.5015 6.63842 30.5979 9.17578 33.5705C11.7131 36.5432 14.5582 39.4899 17.6183 42.5028C20.6784 45.5156 24.1972 48.3302 27.015 50.3066C29.8341 52.2836 34.9827 46.3013 33.2648 44.8231C33.2648 44.8231 30.3141 41.3853 27.3389 38.4321C24.363 35.4782 21.5121 32.7342 19.024 29.9533C16.5359 27.1718 14.2472 24.5068 12.9148 23.4451C10.5886 20.988 4.96456 27.0973 3.97021 25.7013Z" fill="black"/>
<path d="M448.976 69.9944C449.296 70.5722 450.197 71.5277 451.265 72.3937C452.333 73.2592 453.566 74.0307 454.947 74.7393C456.329 75.4487 457.861 76.0932 459.544 76.6937C461.227 77.2942 463.217 77.918 465.572 78.5729C467.925 79.2278 470.613 80.0466 473.663 80.9535C476.713 81.861 480.159 82.7414 482.128 83.1443C484.096 83.5472 484.422 83.6042 484.854 83.691C485.285 83.7772 485.818 83.875 486.446 83.989C487.072 84.103 487.791 84.23 488.344 84.4431C488.896 84.6562 491.999 77.3991 491.631 77.2417C491.631 77.2417 490.899 76.8828 490.254 76.4514C489.608 76.02 489 75.6618 488.431 75.3599C487.863 75.0574 487.326 74.819 486.8 74.6189C486.276 74.4187 482.662 73.278 479.399 72.4073C476.136 71.5361 473.243 70.7931 470.755 70.052C468.268 69.3103 466.185 68.6042 464.493 68.0109C462.8 67.4168 461.403 66.918 460.202 66.4413C459.001 65.9652 457.965 65.548 457.108 65.1639C456.25 64.7797 455.546 64.472 455.249 64.4714C454.631 64.1604 449.296 70.3046 448.976 69.9944Z" fill="black"/>
<path d="M161.887 124.052C162.598 127.105 165.371 132.203 168.512 136.605C171.651 141.009 174.991 144.797 178.486 147.995C181.983 151.194 185.64 153.79 189.77 155.869C193.899 157.949 198.342 159.527 202.881 160.556C207.422 161.586 212.053 162.055 216.764 161.975C221.474 161.893 226.26 161.277 231.16 159.926C236.06 158.576 240.517 156.725 244.589 154.55C248.662 152.376 252.339 149.862 255.622 147.022C258.904 144.183 261.77 141.001 264.828 136.519C267.886 132.036 270.923 126.672 273.379 121.409C275.836 116.145 277.688 110.969 278.828 105.863C279.969 100.757 280.176 95.7442 279.879 92.2747C279.582 88.8052 271.69 88.7158 271.665 90.9603C271.665 90.9603 270.944 95.2447 270.214 99.5078C269.484 103.77 268.444 108.283 266.89 113.054C265.335 117.825 263.196 122.832 260.474 128.026C257.753 133.221 255.733 136.1 253.227 138.758C250.721 141.417 247.819 143.822 244.497 145.956C241.176 148.09 237.439 149.965 233.343 151.543C229.249 153.123 225.047 153.948 220.849 154.31C216.651 154.671 212.57 154.529 208.595 153.895C204.619 153.262 200.747 152.112 197.001 150.471C193.254 148.83 190.317 146.914 187.444 144.388C184.57 141.862 181.787 138.762 179.114 135.062C176.442 131.362 173.816 127.102 172.136 125.038C169.124 120.36 163.22 126.666 161.887 124.052Z" fill="black"/>
<path d="M173.367 62.028C173.027 63.1092 172.949 65.1445 173.081 67.027C173.212 68.9094 173.506 70.6429 173.922 72.2403C174.34 73.8384 174.906 75.303 176.249 77.0339C177.591 78.7641 178.682 79.2707 180.483 79.2454C182.285 79.2201 183.959 78.183 184.691 77.0669C185.421 75.9514 185.656 75.1126 185.723 74.6481C185.79 74.1843 185.805 74.0217 185.822 73.8552C185.838 73.6887 185.853 73.5274 185.864 73.3668C185.875 73.2061 185.882 73.0403 185.923 71.8095C185.964 70.5787 186.101 68.2545 186.114 67.757C186.126 67.2595 186.127 66.8715 186.116 66.4951C186.105 66.1188 186.083 65.7444 186.041 65.3771C185.999 65.0104 185.945 64.6496 185.855 64.1327C185.765 63.6164 185.644 63.0898 185.489 62.5728C185.335 62.0559 185.16 61.5429 184.949 61.0447C184.738 60.5472 184.536 60.1119 184.346 59.7595C184.155 59.4065 183.938 59.0392 183.694 58.6434C183.45 58.2469 183.164 57.8181 182.835 57.3426C182.507 56.8672 182.153 56.3917 182.157 56.3943C182.161 56.3962 182.106 56.3062 182.035 56.1954C181.965 56.084 181.879 55.9506 181.785 55.7932C181.692 55.6357 181.511 55.3216 181.238 54.9497C180.966 54.5786 180.72 54.3104 180.333 53.98C179.945 53.649 179.306 53.2662 178.166 52.9941C177.026 52.7227 176.727 52.7356 174.967 53.5829C173.207 54.4302 172.278 55.9635 172.094 56.8562C171.91 57.7482 171.907 58.3286 171.956 58.8151C172.006 59.3022 172.089 59.7874 172.24 60.463C172.391 61.1386 172.574 61.8473 172.804 62.5968C173.032 63.3469 173.325 64.134 173.656 64.7144C173.988 65.2954 181.718 63.6974 181.633 63.2867C181.633 63.2867 181.871 62.3953 181.841 61.6368C181.81 60.8782 181.756 60.1896 181.7 59.5665C181.644 58.9433 181.601 58.4037 181.606 58.267C181.611 58.1303 181.623 58.1401 181.603 58.4277C181.583 58.7146 181.36 59.516 179.881 60.8918C178.402 62.2677 177.29 62.4873 176.534 62.4063C175.777 62.3247 174.883 61.9821 174.411 61.6646C173.938 61.3472 173.685 61.1088 173.551 60.9566C173.416 60.8037 173.152 60.4164 173.228 60.5505C173.303 60.6852 173.407 60.8756 173.505 61.0531C173.603 61.2306 173.7 61.3978 173.795 61.5519C173.89 61.7054 174.07 61.9808 174.393 62.4621C174.717 62.9434 174.983 63.3327 175.195 63.6514C175.408 63.9701 175.569 64.2039 175.653 64.3419C175.737 64.4805 175.77 64.5375 175.866 64.7189C175.96 64.9003 176.03 65.0668 176.1 65.2443C176.172 65.4211 176.227 65.6167 176.288 65.8234C176.347 66.0307 176.407 66.2904 176.424 66.3993C176.44 66.5081 176.458 66.65 176.479 66.8249C176.501 66.9998 176.52 67.209 176.535 67.4448C176.549 67.6806 176.565 67.7441 176.394 70.0139C176.221 72.2837 176.211 72.3789 176.199 72.48C176.187 72.5817 176.178 72.6873 176.168 72.7922C176.159 72.8971 176.148 73.0008 176.143 73.0286C176.139 73.0559 176.144 73.0008 176.359 72.4618C176.575 71.9222 177.357 70.9648 178.945 70.3695C180.532 69.7748 181.845 70.0074 183.006 71.003C184.168 71.9987 183.981 71.5297 183.695 70.6377C183.41 69.745 183.122 68.6153 182.844 67.2543C182.565 65.8927 182.273 64.3089 181.901 63.4843C181.484 61.6562 173.413 63.0308 173.367 62.028Z" fill="black"/>
<path d="M232.127 53.7209C231.787 54.8021 231.71 56.8374 231.841 58.7198C231.973 60.6023 232.266 62.3351 232.683 63.9332C233.1 65.5306 233.667 66.9959 235.009 68.7261C236.352 70.457 237.442 70.9629 239.243 70.9376C241.045 70.9124 242.719 69.8753 243.451 68.7598C244.181 67.6437 244.416 66.8054 244.484 66.341C244.551 65.8765 244.565 65.7146 244.582 65.5474C244.598 65.381 244.613 65.2203 244.624 65.059C244.635 64.8984 244.642 64.7332 244.683 63.5024C244.724 62.271 244.861 59.9467 244.873 59.4499C244.886 58.9524 244.887 58.5637 244.876 58.1874C244.865 57.8116 244.843 57.4366 244.801 57.0699C244.759 56.7033 244.705 56.3418 244.615 55.8256C244.525 55.3093 244.404 54.7826 244.249 54.265C244.095 53.7481 243.92 53.2351 243.709 52.7376C243.498 52.2394 243.296 51.8041 243.105 51.4517C242.916 51.0993 242.698 50.7314 242.454 50.3356C242.21 49.9398 241.924 49.5103 241.596 49.0349C241.268 48.56 240.913 48.0846 240.917 48.0865C240.921 48.0885 240.866 47.9991 240.795 47.8877C240.725 47.7769 240.639 47.6434 240.546 47.4854C240.452 47.328 240.271 47.0138 239.999 46.6426C239.726 46.2714 239.48 46.0033 239.093 45.6722C238.705 45.3419 238.066 44.9584 236.926 44.687C235.787 44.4156 235.487 44.4285 233.727 45.2758C231.967 46.1231 231.039 47.6564 230.854 48.5484C230.67 49.441 230.667 50.0208 230.717 50.5079C230.766 50.9951 230.849 51.4802 231 52.1559C231.151 52.8315 231.334 53.5395 231.563 54.2897C231.793 55.0391 232.085 55.8268 232.417 56.4073C232.748 56.9877 240.478 55.3896 240.392 54.9796C240.392 54.9796 240.631 54.0882 240.601 53.329C240.571 52.5705 240.516 51.8819 240.46 51.2593C240.405 50.6362 240.361 50.0959 240.366 49.9599C240.371 49.8232 240.383 49.8329 240.363 50.1199C240.343 50.4069 240.12 51.2082 238.641 52.5841C237.162 53.9606 236.05 54.1802 235.294 54.0986C234.537 54.0176 233.644 53.6743 233.17 53.3569C232.698 53.0394 232.445 52.8011 232.311 52.6488C232.177 52.4966 231.913 52.1086 231.987 52.2433C232.064 52.3781 232.168 52.5679 232.265 52.746C232.363 52.9235 232.461 53.0906 232.556 53.2441C232.65 53.3983 232.83 53.673 233.153 54.1543C233.478 54.6356 233.743 55.0255 233.955 55.3443C234.168 55.663 234.329 55.8962 234.413 56.0348C234.498 56.1728 234.53 56.2298 234.626 56.4111C234.721 56.5925 234.79 56.759 234.861 56.9365C234.932 57.114 234.987 57.309 235.048 57.5163C235.108 57.7235 235.167 57.9827 235.184 58.0921C235.2 58.201 235.218 58.3422 235.24 58.5171C235.261 58.6926 235.28 58.9019 235.295 59.1377C235.309 59.3734 235.325 59.4369 235.154 61.7061C234.982 63.9766 234.971 64.0711 234.959 64.1728C234.948 64.2745 234.938 64.3801 234.928 64.4851C234.919 64.59 234.908 64.6937 234.903 64.7209C234.899 64.7487 234.904 64.693 235.12 64.1541C235.335 63.6151 236.118 62.657 237.705 62.0624C239.292 61.4671 240.606 61.6996 241.767 62.6959C242.928 63.6915 242.741 63.2219 242.456 62.3299C242.17 61.4379 241.882 60.3075 241.604 58.9466C241.325 57.5856 241.033 56.0017 240.662 55.1765C240.243 53.3491 232.173 54.7237 232.127 53.7209Z" fill="black"/>
</svg>
