<svg width="709" height="828" viewBox="0 0 709 828" fill="none" xmlns="http://www.w3.org/2000/svg">
<path d="M228.7 180.92C227.717 180.861 226.696 181.254 225.792 182.079C223.513 184.163 221.98 188.742 221.803 194.068C221.527 201.752 224.063 207.688 227.717 207.904C227.776 207.904 227.835 207.904 227.914 207.904C228.857 207.904 229.801 207.511 230.645 206.744C232.925 204.661 234.458 200.082 234.634 194.756C234.91 187.071 232.355 181.136 228.72 180.92H228.7Z" fill="black"/>
<path d="M313.746 178.739C312.763 178.68 311.741 179.073 310.838 179.898C308.558 181.981 307.025 186.56 306.849 191.886C306.574 199.571 309.109 205.506 312.763 205.722C312.822 205.722 312.881 205.722 312.96 205.722C313.903 205.722 314.846 205.329 315.691 204.563C317.97 202.479 319.503 197.9 319.68 192.574C319.955 184.89 317.401 178.955 313.766 178.739H313.746Z" fill="black"/>
<path d="M300.501 250.945C293.997 257.843 285.037 261.577 275.546 261.204C265.78 260.811 256.859 256.054 250.414 248.822C248.507 246.7 245.403 249.824 247.289 251.947C254.521 260.044 264.66 265.194 275.566 265.626C286.157 266.038 296.395 261.754 303.646 254.07C305.591 252.006 302.486 248.862 300.521 250.945H300.501Z" fill="black"/>
<path d="M354.244 255.74C368.176 232.255 375.486 204.425 374.307 177.107C374.15 173.609 373.855 170.13 373.423 166.652C372.971 162.937 367.056 162.897 367.528 166.652C370.77 192.85 365.857 219.853 354.186 243.476C343.083 265.941 326.519 286.282 302.977 295.597C283.465 303.321 265.014 306.269 245.972 303.38C245.265 303.282 239.723 302.634 239.016 302.496L235.42 301.828C235.42 301.828 229.133 300.413 226.047 299.528C202.723 292.924 180.833 280.072 166.527 260.143C162.598 254.66 159.336 248.842 156.624 242.769C156.584 242.061 156.27 241.334 155.759 240.765C147.703 221.819 144.834 200.672 144.048 180.213C143.91 176.498 143.831 172.764 143.812 169.049C143.792 165.256 137.897 165.256 137.917 169.049C138.074 193.204 140.294 218.477 149.452 241.079C136.738 245.206 121.843 237.954 118.267 224.59C114.808 211.638 123.671 197.468 136.011 193.301C139.587 192.103 138.054 186.403 134.439 187.622C121.902 191.867 112.981 203.364 111.783 216.532C110.584 229.798 119.328 241.747 131.491 246.405C138.113 248.94 145.207 248.743 151.77 246.464C153.185 249.51 154.737 252.517 156.447 255.445C169.592 277.949 191.07 293.612 215.357 302.3C221.528 304.5 227.875 306.289 234.32 307.625C234.202 319.103 234.634 332.369 227.227 341.507C220.388 349.939 209.424 354.715 198.537 355.226H198.498C196.69 355.521 195.295 355.246 195.295 355.246C195.295 355.246 191.365 354.99 189.459 354.636C185.745 353.948 184.153 359.628 187.887 360.316C190.894 360.867 193.978 361.122 197.064 361.082C211.939 368.786 229.564 371.557 246.071 372.737C265.367 374.112 285.43 372.737 304 367.057C311.584 364.738 319.228 361.613 325.359 356.464C326.479 355.521 326.538 354.341 326.047 353.378C326.125 353.201 326.185 353.025 326.223 352.828C326.538 353.162 326.93 353.437 327.461 353.594C337.365 356.916 346.778 362.262 355.364 368C360.532 371.46 364.836 375.96 369.1 380.48C371.616 383.153 375.663 379.026 373.187 376.235C367.724 370.045 361.358 364.738 354.362 360.316C346.463 355.304 337.915 350.882 329.034 347.895C327.127 347.246 325.811 348.543 325.516 350.076C324.867 349.31 323.885 348.839 322.627 349.114C311.053 351.61 298.497 347.404 290.735 338.442C287.572 334.786 285.567 330.266 284.782 325.49C283.937 320.302 284.055 314.956 283.681 309.728C283.642 309.06 283.406 308.529 283.072 308.097C287.199 307.251 291.286 306.21 295.314 304.854C320.604 296.403 340.745 278.42 354.244 255.682V255.74ZM279.299 328.301C280.419 334.078 283.288 339.169 287.277 343.453C294.705 351.491 305.512 355.776 316.32 355.677C312.409 357.938 308.086 359.589 303.862 360.944C295.687 363.578 287.159 365.249 278.631 366.231C260.023 368.354 240.844 367.549 222.53 363.519C217.814 362.478 213.118 361.239 208.539 359.628C217.165 357.446 225.163 352.926 230.999 346.185C239.881 335.906 239.98 321.775 240.195 308.726C252.654 310.731 265.367 310.966 277.806 309.079C277.767 309.296 277.767 309.532 277.786 309.767C278.219 315.939 278.12 322.208 279.319 328.301H279.299Z" fill="black"/>
<mask id="mask0_193_667" style="mask-type:luminance" maskUnits="userSpaceOnUse" x="1" y="347" width="708" height="457">
<path d="M1.48315 347.964H708.963V803.722H1.48315V347.964Z" fill="white"/>
</mask>
<g mask="url(#mask0_193_667)">
<path d="M706.217 348.209C705.922 348.17 705.588 348.151 705.254 348.209C653.849 356.189 602.582 365.053 551.354 374.132C500.736 383.113 450.176 392.311 399.499 400.979C370.358 405.971 341.177 410.786 311.958 415.306C310.445 415.542 309.816 416.622 309.836 417.782C309.836 417.9 309.796 418.018 309.796 418.156C309.344 441.346 308.008 464.538 306.377 487.689C304.569 513.298 302.329 538.867 299.853 564.436C297.554 588.315 295.039 612.193 292.367 636.033C292.288 636.721 292.209 637.389 292.13 638.077C288.161 635.168 284.034 632.515 279.711 630.136C279.181 629.842 278.316 628.211 277.767 627.287C269.572 613.373 260.926 599.596 251.494 586.487C249.175 583.283 246.818 580.079 244.283 577.034C244.046 576.66 243.811 576.287 243.575 575.913C237.838 566.302 233.829 555.867 230.508 545.195C223.021 521.119 218.188 496.239 213.491 471.495C210.76 457.109 208.166 442.683 205.415 428.296C204.708 424.582 199.028 426.154 199.736 429.869C204.668 455.831 209.148 481.871 214.808 507.696C219.838 530.671 225.143 554.786 236.58 575.559C236.442 576.365 236.619 577.23 237.327 577.996C238.113 578.861 238.84 579.785 239.606 580.669C243.575 587.037 248.075 593.07 252.083 599.399C252.634 600.264 253.4 600.677 254.206 600.755C254.422 601.089 254.658 601.423 254.874 601.757C259.983 609.481 264.915 617.343 269.71 625.263C270.279 626.206 270.85 627.169 271.419 628.112C253.498 625.282 235.303 639.61 234.241 657.888C234.025 661.68 239.92 661.661 240.136 657.888C240.982 643.089 256.78 630.982 271.282 634.008C273.168 634.401 275.448 634.5 276.744 635.207C279.555 636.76 282.305 638.431 284.978 640.199C286.314 641.083 287.631 642.008 288.928 642.951C289.576 643.423 290.224 643.914 290.854 644.385C291.128 644.601 291.168 644.621 290.971 644.484C291.109 644.582 291.227 644.68 291.364 644.779C289.91 657.671 288.397 670.544 286.845 683.417C286.687 683.377 286.531 683.358 286.353 683.339C277.767 682.847 269.179 679.918 261.359 676.44C253.656 673.001 246.326 668.677 239.664 663.508C238.486 662.604 220.447 650.556 212.921 644.012C208.421 640.101 204.02 636.053 199.933 631.709C196.493 628.034 193.625 624.045 190.598 620.055C186.609 614.788 182.326 609.815 177.807 605C174.682 601.679 171.813 598.652 169.553 595.193C167.982 592.776 166.665 590.22 165.506 587.607C165.427 587.41 165.348 587.214 165.23 587.018C164.052 584.285 163.029 581.495 162.086 578.684C158.609 568.386 156.093 557.832 153.381 547.317C149.511 532.303 144.126 517.798 139.528 502.999C132.435 480.221 128.308 456.794 125.616 433.132C126.677 426.528 128.426 420.023 130.902 413.734C136.777 398.837 146.7 386.317 158.943 376.117C166.233 370.044 174.191 364.797 182.228 359.746C185.431 357.741 182.483 352.632 179.261 354.656C164.68 363.834 150.139 373.896 139.37 387.536C129.369 400.192 122.61 415.345 119.898 431.245V431.284C119.72 431.658 119.642 432.129 119.682 432.66C118.738 438.753 118.345 444.884 118.562 451.016C118.503 451.252 118.463 451.508 118.463 451.783C118.306 487.532 120.251 523.026 123.985 558.579C125.145 569.624 126.362 580.65 127.581 591.695C121.214 592.854 114.867 593.994 108.5 595.154C80.0672 600.303 51.6531 605.432 23.2192 610.582C16.7151 611.761 10.1913 612.94 3.68725 614.119C-0.0464862 614.788 1.54548 620.468 5.25871 619.799C23.1011 616.576 40.9434 613.353 58.7857 610.13C87.2196 604.981 115.634 599.851 144.068 594.702C149.687 593.68 155.327 592.658 160.947 591.655C161.478 592.756 161.988 593.857 162.558 594.938C166.213 601.62 171.577 607.084 176.765 612.645C164.916 614.788 153.067 616.93 141.218 619.112C121.961 622.649 102.684 626.167 83.4662 629.96C78.5147 630.942 73.0322 631.513 68.2768 633.262C66.41 633.95 65.1134 636.642 66.9803 638.195C75.7049 645.427 84.5075 652.561 93.1345 659.912C101.427 666.987 109.286 674.612 117.874 681.334C126.068 687.741 134.694 693.578 143.497 699.14C151.77 704.368 160.672 708.927 168.512 714.765C175.389 719.894 181.52 726.085 188.889 730.546C193.802 733.533 199.127 735.499 204.884 734.614C216.772 732.767 228.523 729.249 240.176 726.281C254.442 722.645 268.688 718.931 282.954 715.374C283.032 716.455 283.74 717.123 284.644 717.398C285.214 717.692 285.901 717.81 286.707 717.575C333.278 704.308 380.595 693.715 427.933 683.673C441.471 680.803 455.049 677.993 468.608 675.242C468.51 696.919 468.647 718.597 468.608 740.274C468.608 743.104 468.569 746.23 468.686 749.394C461.239 751.123 453.89 753.6 446.953 756.861C439.447 760.399 433.317 764.959 429.544 772.506C425.24 781.114 425.417 791.196 433.277 797.721C440.764 803.932 451.12 803.813 460.315 803.676C483.286 803.323 506.238 799.805 528.246 793.26C542.964 788.897 564.422 780.033 561.808 760.95C560.492 751.379 552.396 744.618 543.592 741.847C538.778 740.333 533.571 740.157 528.561 739.862C524.65 739.626 520.739 739.527 516.849 739.41C516.869 738.034 516.888 736.639 516.908 735.263C517.262 711.994 517.615 688.723 517.969 665.454C547.405 659.755 576.88 654.271 606.394 648.965C624.787 645.663 643.179 642.42 661.611 639.276C664.637 638.765 667.663 638.234 670.709 637.743C671.22 637.743 671.692 637.585 672.104 637.291C672.831 636.838 673.185 636.072 673.185 635.266C674.344 629.174 675.425 623.081 676.506 616.989C679.355 600.991 682.067 584.973 684.66 568.917C688.256 546.728 691.636 524.5 694.721 502.233C698.121 477.764 701.206 453.237 703.702 428.65C706.059 405.46 707.985 382.19 708.732 358.881C708.811 356.268 708.889 353.653 708.928 351.039C708.967 349.192 707.592 348.248 706.158 348.209H706.217ZM133.397 590.653C129.566 555.709 125.675 520.805 124.732 485.645C124.555 478.944 124.477 472.222 124.437 465.52C126.441 476.703 128.937 487.788 132.139 498.715C136.483 513.573 142.004 528.077 146.17 542.994C149.137 553.567 151.495 564.278 154.717 574.793C155.877 578.586 157.135 582.399 158.589 586.133C150.198 587.646 141.808 589.16 133.417 590.692L133.397 590.653ZM203.017 728.973C202.86 728.993 202.703 729.013 203.017 728.973ZM206.712 728.305C205.847 728.482 204.983 728.659 204.098 728.797C203.764 728.856 203.43 728.915 203.076 728.954C203.076 728.954 203.076 728.954 203.057 728.954C202.92 728.954 202.762 728.993 202.625 729.013C200.345 729.151 198.125 728.542 196.022 727.657C188.319 724.394 182.051 718.125 175.626 712.917C168.434 707.079 160.318 702.638 152.458 697.784C143.812 692.458 135.264 686.954 127.07 680.96C117.442 673.905 108.855 665.69 99.815 657.907C91.7592 650.969 83.5449 644.228 75.3315 637.488C77.6891 637.016 80.0869 636.642 82.3854 636.19C90.973 634.48 99.5992 632.849 108.206 631.217C127.64 627.562 147.093 624.005 166.547 620.468C171.479 619.583 176.392 618.679 181.324 617.794C181.638 618.168 181.952 618.521 182.248 618.895C185.332 622.669 188.044 626.717 191.09 630.53C195.295 635.797 200.168 640.514 205.179 645.034C215.22 654.094 240.254 671.193 240.254 671.193C240.254 671.193 252.476 678.995 259.158 681.904C267.705 685.638 276.784 688.685 286.157 689.254C286.118 689.549 286.079 689.844 286.059 690.138C285.391 695.642 284.703 701.164 284.016 706.667C283.917 707.473 283.779 708.298 283.662 709.124C270.967 712.288 258.293 715.55 245.619 718.813C232.709 722.134 219.799 725.692 206.712 728.325V728.305ZM537.639 746.505C544.379 747.428 551.453 751.084 554.656 757.314C557.957 763.721 555.54 770.816 550.706 775.631C545.38 780.917 538.248 783.964 531.213 786.184C511.878 792.317 491.795 796.109 471.536 797.328C466.427 797.643 461.298 797.799 456.17 797.78C452.082 797.78 447.936 797.643 443.966 796.581C435.773 794.36 430.703 787.443 433.258 779.011C435.753 770.776 441.629 765.981 449.056 762.365C455.423 759.26 462.261 756.999 469.158 755.329C470.278 764.822 473.756 773.606 484.544 775.729C491.952 777.183 500.736 775.454 507.672 772.703C511.543 771.17 514.413 768.516 515.689 764.487C517.065 760.124 516.652 755.171 516.711 750.671C516.731 748.882 516.77 747.074 516.79 745.286C523.726 745.483 530.742 745.562 537.619 746.505H537.639ZM474.542 671.507C474.68 649.122 474.68 626.56 476.645 604.234C476.96 600.696 477.254 597.669 477.824 594.427C478.04 593.188 478.295 591.951 478.629 590.751C478.689 590.536 478.748 590.299 478.826 590.083C478.826 590.064 478.826 590.064 478.846 590.024C479.082 589.906 479.494 589.67 479.612 589.572C479.868 589.356 480.143 589.16 480.418 588.963C481.282 588.334 482.186 587.745 483.09 587.174C489.025 583.578 496.59 581.22 503.487 583.008C506.788 583.854 510.463 585.878 512.113 588.983C514.117 592.756 513.115 598.338 513.056 602.445C512.467 641.83 511.858 681.216 511.268 720.601C511.19 725.475 511.111 730.369 511.052 735.243C511.013 737.386 510.993 739.528 510.954 741.689C510.914 741.945 510.914 742.2 510.954 742.456C510.914 744.873 510.875 747.291 510.836 749.708C510.777 753.934 511.367 758.867 510.011 762.934C508.733 766.786 504.666 767.652 501.168 768.555C497.69 769.46 494.134 770.245 490.537 770.344C487.059 770.442 483.444 769.911 480.614 767.75C477.765 765.568 476.292 762.207 475.486 758.788C474.11 752.912 474.522 746.701 474.542 740.707C474.601 717.653 474.405 694.6 474.542 671.527V671.507ZM478.904 589.906C479.141 589.73 479.042 589.611 478.904 589.906ZM690.182 492.642C687.116 515.263 683.737 537.845 680.141 560.387C677.449 577.269 674.62 594.132 671.652 610.955C670.394 618.07 669.019 625.165 667.801 632.259C658.998 633.733 650.194 635.247 641.411 636.78C617.418 640.966 593.445 645.27 569.491 649.712C552.356 652.876 535.241 656.119 518.126 659.42C518.382 642.381 518.637 625.322 518.892 608.282C519.03 599.124 521.27 587.803 513.155 581.377C506.985 576.483 499.007 575.658 491.52 577.387C487.767 578.252 484.092 579.765 480.771 581.711C478.158 583.224 474.228 585.327 473.226 588.334C472.283 591.145 471.929 594.191 471.536 597.099C470.278 606.671 469.865 616.341 469.512 625.97C469.021 638.922 468.824 651.874 468.726 664.825C468.726 666.279 468.726 667.734 468.706 669.169C419.306 679.172 369.984 689.726 321.134 702.186C314.374 703.915 292.327 708.829 289.773 709.458C290.303 705.233 290.893 699.12 291.423 694.895C293.525 677.855 295.53 660.815 297.456 643.757C300.108 620.389 302.604 597.021 304.923 573.614C307.438 548.045 309.757 522.456 311.663 496.848C313.432 473.283 314.905 449.68 315.554 426.057C315.613 424.248 315.632 422.44 315.691 420.612C366.388 412.711 416.948 403.985 467.468 395.024C518.087 386.042 568.646 376.844 619.324 368.177C647.188 363.401 675.091 358.822 703.034 354.459C702.503 376.058 700.892 397.637 698.828 419.138C696.49 443.686 693.523 468.173 690.222 492.602L690.182 492.642Z" fill="black"/>
</g>
<path d="M305.021 90.0428C297.593 104.999 287.218 118.304 274.505 129.133C261.497 140.198 244.656 150.889 226.952 150.005C223.159 149.828 223.179 155.724 226.952 155.901C241.905 156.628 255.994 149.711 268.02 141.456C279.456 133.594 289.497 123.925 297.868 112.86C302.565 106.65 306.652 99.9876 310.13 93.01C311.82 89.63 306.731 86.6234 305.041 90.0428H305.021Z" fill="black"/>
<path d="M167.215 172.783C184.37 158.731 197.378 140.179 205.002 119.385C206.318 115.808 200.62 114.275 199.324 117.813C192.053 137.663 179.398 155.233 163.049 168.617C160.121 171.014 164.307 175.181 167.215 172.783Z" fill="black"/>
<path d="M108.835 296.855C111.448 302.909 114.298 308.844 117.343 314.68C119.092 318.022 124.064 315.054 122.314 311.713C97.6142 264.427 85.6867 207.943 93.7237 154.584C97.5362 129.232 105.828 104.724 120.546 83.813C134.537 63.9432 153.322 47.7489 174.112 35.7998C194.43 24.1256 217.264 15.9891 240.51 13.6112C263.323 11.272 286.628 14.0627 308.44 21.2758C330.193 28.4684 350.885 40.4184 366.428 57.811C384.329 77.8187 389.792 104.822 395.392 130.529C406.16 179.917 413.096 235.674 390.676 282.881C387.984 288.522 384.918 293.966 381.499 299.174C379.436 302.338 384.407 305.286 386.471 302.142C401.032 279.953 408.38 253.991 410.444 227.498C412.546 200.651 409.52 173.609 404.647 147.254C402.249 134.283 399.341 121.429 396.237 108.615C392.955 95.1326 388.927 81.7684 382.069 69.6822C369.827 48.1224 348.978 32.3992 327.068 22.3371C305.041 12.2151 280.891 6.98742 256.799 6.90862C232.807 6.83064 209.207 12.5885 187.317 22.4742C164.779 32.6553 143.969 47.4345 127.306 66.0855C110.151 85.2863 98.5185 108.124 92.1514 133.3C85.3133 160.284 84.1153 188.663 87.259 216.296C90.4224 244.105 97.7717 271.286 108.855 296.855H108.835Z" fill="black"/>
<path d="M62.7156 465.54C64.4651 486.215 66.2138 506.891 67.9625 527.586C69.9278 550.698 71.8727 573.83 73.838 596.943C74.1523 600.696 80.0475 600.736 79.7332 596.943C76.3728 557.203 73.0125 517.484 69.6521 477.744C67.9822 458.072 66.3123 438.419 64.6612 418.745C63.148 400.742 61.6348 381.738 68.0807 364.462C73.5631 349.821 86.3547 336.024 102.684 334.805C106.437 334.531 106.477 328.635 102.684 328.91C87.4551 330.05 74.8597 340.034 67.1961 352.847C57.8428 368.472 56.8212 387.34 57.7641 405.086C58.8251 425.27 61.0063 445.415 62.7156 465.54Z" fill="black"/>
<path d="M330.723 103.565C335.243 125.183 346.699 145.131 363.067 159.97C365.877 162.505 370.063 158.358 367.234 155.803C351.533 141.594 340.745 122.726 336.402 102.012C335.636 98.2975 329.937 99.8693 330.723 103.584V103.565Z" fill="black"/>
</svg>
