<svg width="39" height="39" viewBox="0 0 39 39" fill="none" xmlns="http://www.w3.org/2000/svg">
<path d="M13 0V9.75H26V0H13ZM9.75 13H0V26H9.75V13ZM13 26V13H26V26H13ZM9.75 29.25H0V30.875C0 33.0299 0.856024 35.0965 2.37976 36.6202C3.90349 38.144 5.97012 39 8.125 39H9.75V29.25ZM13 39H26V29.25H13V39ZM29.25 39V29.25H39V30.875C39 33.0299 38.144 35.0965 36.6202 36.6202C35.0965 38.144 33.0299 39 30.875 39H29.25ZM39 13V26H29.25V13H39ZM39 9.75V8.125C39 5.97012 38.144 3.90349 36.6202 2.37976C35.0965 0.856024 33.0299 0 30.875 0H29.25V9.75H39Z" fill="#414040"/>
</svg>
