<svg width="88" height="49" viewBox="0 0 88 49" fill="none" xmlns="http://www.w3.org/2000/svg">
<path d="M68.75 27.2223H19.25C17.71 27.2223 16.5 26.0245 16.5 24.5001C16.5 22.9756 17.71 21.7778 19.25 21.7778H68.75C70.29 21.7778 71.5 22.9756 71.5 24.5001C71.5 26.0245 70.29 27.2223 68.75 27.2223Z" fill="black"/>
<path d="M55 46.2777C54.6393 46.2821 54.2817 46.2117 53.9502 46.071C53.6187 45.9304 53.3206 45.7226 53.075 45.4611C51.975 44.3722 51.975 42.6844 53.075 41.5955L70.4 24.4455L53.075 7.2955C51.975 6.20661 51.975 4.51884 53.075 3.42995C54.175 2.34106 55.88 2.34106 56.98 3.42995L76.23 22.4855C77.33 23.5744 77.33 25.2622 76.23 26.3511L56.98 45.4066C56.43 45.9511 55.715 46.2233 55.055 46.2233L55 46.2777Z" fill="black"/>
</svg>
